<svg xmlns="http://www.w3.org/2000/svg" viewBox="0 0 47.33 37.4"><defs><style>.cls-1{fill:#e9e9f4;}</style></defs><g id="Capa_2" data-name="Capa 2"><g id="OBJECTS"><path class="cls-1" d="M0,30.79a6.49,6.49,0,0,0,6.46,6.5h2l0-12.36L0,24.92Z"/><path class="cls-1" d="M6.56,0A6.47,6.47,0,0,0,.08,6.46l0,4.26,8.48,0L8.57,0h-2Z"/><path class="cls-1" d="M15.45,23.21a7.87,7.87,0,0,1,1.87-5,7.88,7.88,0,0,1-1.84-5.06,8,8,0,0,1,.15-1.47l-6.22,0,0,12.45,6.16,0A8.46,8.46,0,0,1,15.45,23.21Z"/><rect class="cls-1" x="-1.94" y="13.59" width="12.45" height="8.48" transform="translate(-13.56 22.05) rotate(-89.82)"/><path class="cls-1" d="M30.9,10.81l7.12,0L38.05.1,24.16.05l0,5.26A7.87,7.87,0,0,1,30.9,10.81Z"/><path class="cls-1" d="M23.27,5.25V.05L9.45,0l0,10.73,6.47,0A7.87,7.87,0,0,1,23.27,5.25Z"/><path class="cls-1" d="M41.53,24.17l0-12.45-10.43,0a7.18,7.18,0,0,1,.14,1.47,7.81,7.81,0,0,1-1.86,5,7.87,7.87,0,0,1,1.83,5.06,8.75,8.75,0,0,1-.09.88Z"/><path class="cls-1" d="M38.82,37.39h2a6.49,6.49,0,0,0,6.49-6.46V25.07l-8.42,0Z"/><path class="cls-1" d="M15.66,25,9.37,25l0,12.35,13.84,0,0-6.22A7.9,7.9,0,0,1,15.66,25Z"/><rect class="cls-1" x="38.64" y="15.52" width="12.45" height="4.87" transform="translate(26.77 62.76) rotate(-89.82)"/><path class="cls-1" d="M40.87.11H38.93l0,10.74,8.42,0V6.61A6.47,6.47,0,0,0,40.87.11Z"/><path class="cls-1" d="M24.06,31.06l0,6.29,13.9,0L38,25,31,25A7.89,7.89,0,0,1,24.06,31.06Z"/><path class="cls-1" d="M30.38,23.25a7,7,0,0,0-1.87-4.75l-.28-.3.28-.3a7,7,0,1,0-10.29,0l.28.3-.28.29a7,7,0,1,0,12.16,4.79Z"/></g></g></svg>