<svg xmlns="http://www.w3.org/2000/svg" viewBox="0 0 41.97 24.43"><defs><style>.cls-1{fill:none;}.cls-1,.cls-2{stroke:#e9e9f4;stroke-linecap:round;stroke-linejoin:round;stroke-width:0.75px;}.cls-2{fill:#e9e9f4;}</style></defs><g id="Capa_2" data-name="Capa 2"><g id="OBJECTS"><path class="cls-1" d="M32.83,12.21a13.65,13.65,0,0,0,3.7,9.37A11.83,11.83,0,1,1,29.29.38a11.71,11.71,0,0,1,7.24,2.47A13.62,13.62,0,0,0,32.83,12.21Z"/><path class="cls-2" d="M19.31,21.7a11.84,11.84,0,1,1,0-19,13.75,13.75,0,0,0,0,19Z"/><path class="cls-2" d="M41.59,12.21a11.76,11.76,0,0,1-3.4,8.31,11.82,11.82,0,0,1,0-16.61A11.76,11.76,0,0,1,41.59,12.21Z"/></g></g></svg>